<?xml version="1.0" standalone="no"?>
<!DOCTYPE svg PUBLIC "-//W3C//DTD SVG 20010904//EN"
 "http://www.w3.org/TR/2001/REC-SVG-20010904/DTD/svg10.dtd">
<svg version="1.0" xmlns="http://www.w3.org/2000/svg"
 width="256.000000pt" height="256.000000pt" viewBox="0 0 256.000000 256.000000"
 preserveAspectRatio="xMidYMid meet">
<metadata>
Created by potrace 1.14, written by Peter Selinger 2001-2017
</metadata>
<g transform="translate(0.000000,256.000000) scale(0.100000,-0.100000)"
fill="#000000" stroke="none">
<path d="M2285 2383 c-44 -6 -100 -14 -125 -17 -25 -3 -54 -8 -65 -10 -11 -2
-47 -7 -80 -11 -32 -3 -62 -8 -65 -10 -3 -1 -36 -6 -75 -10 -38 -4 -73 -9 -76
-11 -4 -2 -31 -6 -60 -9 -30 -3 -65 -7 -79 -10 -25 -5 -45 -8 -135 -20 -27 -3
-61 -8 -75 -10 -14 -3 -43 -7 -65 -10 -22 -3 -51 -8 -65 -10 -14 -3 -47 -7
-75 -10 -95 -12 -86 42 -83 -468 l3 -452 615 0 615 0 3 542 c2 512 1 542 -15
540 -10 -1 -54 -7 -98 -14z"/>
<path d="M1039 2206 c-2 -3 -33 -7 -67 -11 -35 -3 -72 -8 -83 -10 -11 -2 -70
-11 -132 -20 -62 -8 -123 -17 -137 -19 -81 -14 -190 -29 -286 -42 -22 -2 -66
-9 -99 -14 -33 -5 -63 -10 -68 -10 -4 0 -6 -172 -5 -382 l3 -383 458 0 457 0
0 447 c0 428 -1 448 -18 448 -10 0 -21 -2 -23 -4z"/>
<path d="M160 863 c0 -204 3 -374 8 -376 4 -3 30 -8 57 -11 55 -8 176 -25 215
-32 14 -2 61 -8 105 -14 87 -12 127 -18 165 -25 14 -2 45 -7 70 -10 25 -3 56
-8 70 -10 36 -7 78 -13 140 -20 30 -4 63 -9 72 -11 17 -5 18 21 18 438 l0 443
-460 0 -460 0 0 -372z"/>
<path d="M1164 1231 c-2 -2 -4 -203 -4 -447 l0 -442 28 -6 c15 -3 47 -8 72
-11 25 -3 56 -7 70 -9 33 -6 65 -11 245 -36 83 -11 157 -22 165 -25 8 -2 40
-6 71 -10 31 -3 65 -7 75 -9 19 -4 88 -14 134 -21 93 -14 252 -36 285 -41 22
-2 52 -7 68 -10 l27 -6 -2 539 -3 538 -613 0 c-338 0 -616 -2 -618 -4z"/>
</g>
</svg>
